<svg width="27" height="27" viewBox="0 0 27 27" fill="none" xmlns="http://www.w3.org/2000/svg">
    <rect width="27" height="27" rx="6" fill="url(#paint0_linear_16_329)"/>
    <path fill-rule="evenodd" clip-rule="evenodd" d="M22.1337 15.7632C22.8331 15.7632 23.4 16.3433 23.4 17.0588C23.4 17.7744 22.8331 18.3545 22.1337 18.3545H18.7068V15.7632H22.1337Z" fill="white"/>
    <path fill-rule="evenodd" clip-rule="evenodd" d="M14.4937 15.7632C15.4985 15.7632 16.313 16.5966 16.313 17.6246C16.313 17.8838 16.2612 18.1307 16.1676 18.3549L4.8662 18.3545C4.16685 18.3545 3.59991 17.7744 3.59991 17.0588C3.59991 16.3433 4.16685 15.7632 4.8662 15.7632H14.4937Z" fill="white"/>
    <path fill-rule="evenodd" clip-rule="evenodd" d="M12.9658 5.10945L14.1679 7.23972L14.1679 9.49463L12.6898 9.49463L10.9032 6.32793C10.5743 5.74514 10.7695 4.99992 11.3391 4.66345C11.9086 4.32697 12.637 4.52665 12.9658 5.10945Z" fill="white"/>
    <path fill-rule="evenodd" clip-rule="evenodd" d="M15.4442 9.42365L21.7255 20.5559C22.0752 21.1756 21.8677 21.968 21.262 22.3258C20.6564 22.6836 19.8819 22.4713 19.5322 21.8516L15.7204 15.0952L15.3003 14.2719L15.1115 13.9097L14.997 13.6975C14.9856 13.6769 14.9747 13.6574 14.9643 13.6389C14.1785 12.2463 14.4185 10.5359 15.4442 9.42365Z" fill="white"/>
    <path fill-rule="evenodd" clip-rule="evenodd" d="M13.9551 5.23508C14.3048 4.61538 15.0792 4.40305 15.6849 4.76084C16.2663 5.10431 16.4808 5.84834 16.1877 6.45558L16.1484 6.53073L10.2744 16.94H7.35042L13.9551 5.23508Z" fill="white"/>
    <path fill-rule="evenodd" clip-rule="evenodd" d="M7.12017 18.7172C7.80841 18.7172 8.41126 19.0912 8.74516 19.6514L7.51452 21.8319C7.16485 22.4516 6.3904 22.6639 5.78475 22.3061C5.20332 21.9627 4.98882 21.2186 5.28196 20.6114L5.32126 20.5362L6.22473 18.9345C6.49426 18.7954 6.79862 18.7172 7.12017 18.7172Z" fill="white"/>
    <defs>
        <linearGradient id="paint0_linear_16_329" x1="13.5" y1="0" x2="13.5" y2="27" gradientUnits="userSpaceOnUse">
            <stop stop-color="#1AC8FC"/>
            <stop offset="1" stop-color="#1D70F2"/>
        </linearGradient>
    </defs>
</svg>