<svg width="27" height="27" viewBox="0 0 27 27" fill="none" xmlns="http://www.w3.org/2000/svg">
    <rect width="27" height="27" rx="6" fill="url(#paint0_linear_16_356)"/>
    <path d="M13.5629 25.1992C20.0246 25.1992 25.2629 19.9609 25.2629 13.4992C25.2629 7.03746 20.0246 1.79919 13.5629 1.79919C7.10115 1.79919 1.86288 7.03746 1.86288 13.4992C1.86288 19.9609 7.10115 25.1992 13.5629 25.1992Z" fill="#38D165"/>
    <path d="M13.5629 20.6992C17.5393 20.6992 20.7629 17.4756 20.7629 13.4992C20.7629 9.52274 17.5393 6.29919 13.5629 6.29919C9.58643 6.29919 6.36288 9.52274 6.36288 13.4992C6.36288 17.4756 9.58643 20.6992 13.5629 20.6992Z" fill="#46D75E"/>
    <path d="M13.5629 20.6992C17.5393 20.6992 20.7629 17.4756 20.7629 13.4992C20.7629 9.52274 17.5393 6.29919 13.5629 6.29919C9.58643 6.29919 6.36288 9.52274 6.36288 13.4992C6.36288 17.4756 9.58643 20.6992 13.5629 20.6992Z" fill="#46D75E"/>
    <path d="M13.5629 16.6492C15.3026 16.6492 16.7129 15.2389 16.7129 13.4992C16.7129 11.7595 15.3026 10.3492 13.5629 10.3492C11.8232 10.3492 10.4129 11.7595 10.4129 13.4992C10.4129 15.2389 11.8232 16.6492 13.5629 16.6492Z" fill="#EFEFF4"/>
    <path d="M13.5629 20.9242C12.0944 20.9242 10.6588 20.4888 9.43777 19.6729C8.21674 18.857 7.26506 17.6974 6.70308 16.3406C6.1411 14.9839 5.99406 13.491 6.28055 12.0507C6.56705 10.6104 7.27421 9.28736 8.31261 8.24895C9.35102 7.21055 10.674 6.50339 12.1143 6.21689C13.5546 5.9304 15.0476 6.07744 16.4043 6.63942C17.761 7.2014 18.9207 8.15308 19.7365 9.37411C20.5524 10.5951 20.9879 12.0307 20.9879 13.4992C20.9879 15.4685 20.2056 17.357 18.8131 18.7495C17.4207 20.1419 15.5321 20.9242 13.5629 20.9242ZM13.5629 6.52422C12.1834 6.52422 10.8348 6.9333 9.68778 7.69972C8.54075 8.46614 7.64674 9.55549 7.11882 10.83C6.5909 12.1045 6.45277 13.507 6.7219 14.86C6.99104 16.213 7.65534 17.4558 8.63081 18.4313C9.60628 19.4068 10.8491 20.0711 12.2021 20.3402C13.5551 20.6093 14.9576 20.4712 16.2321 19.9433C17.5066 19.4154 18.596 18.5214 19.3624 17.3743C20.1288 16.2273 20.5379 14.8787 20.5379 13.4992C20.5379 11.6493 19.803 9.87522 18.495 8.56715C17.1869 7.25909 15.4128 6.52422 13.5629 6.52422Z" fill="#58DC73"/>
    <path d="M13.5629 13.4987L7.71289 3.37372C9.49152 2.34683 11.5091 1.80621 13.5629 1.80621C15.6167 1.80621 17.6343 2.34683 19.4129 3.37372L13.5629 13.4987Z" fill="url(#paint1_linear_16_356)"/>
    <path d="M13.5629 16.6492C15.3026 16.6492 16.7129 15.2389 16.7129 13.4992C16.7129 11.7595 15.3026 10.3492 13.5629 10.3492C11.8232 10.3492 10.4129 11.7595 10.4129 13.4992C10.4129 15.2389 11.8232 16.6492 13.5629 16.6492Z" fill="#EFEFF4"/>
    <path d="M13.5629 15.5242C14.6813 15.5242 15.5879 14.6176 15.5879 13.4992C15.5879 12.3808 14.6813 11.4742 13.5629 11.4742C12.4445 11.4742 11.5379 12.3808 11.5379 13.4992C11.5379 14.6176 12.4445 15.5242 13.5629 15.5242Z" fill="#007AFF"/>
    <defs>
        <linearGradient id="paint0_linear_16_356" x1="13.5" y1="0" x2="13.5" y2="27" gradientUnits="userSpaceOnUse">
            <stop stop-color="#DDDDDB"/>
            <stop offset="1" stop-color="#CDCDCB"/>
        </linearGradient>
        <linearGradient id="paint1_linear_16_356" x1="13.5629" y1="13.4987" x2="13.5629" y2="-0.662784" gradientUnits="userSpaceOnUse">
            <stop offset="0.18" stop-color="#057EEE"/>
            <stop offset="0.2" stop-color="#057EEF" stop-opacity="0.96"/>
            <stop offset="0.46" stop-color="#037CF6" stop-opacity="0.56"/>
            <stop offset="0.67" stop-color="#017BFB" stop-opacity="0.26"/>
            <stop offset="0.83" stop-color="#007AFE" stop-opacity="0.07"/>
            <stop offset="0.9" stop-color="#007AFF" stop-opacity="0"/>
        </linearGradient>
    </defs>
</svg>