<?xml version="1.0" encoding="UTF-8"?>
<svg version="1.1" xmlns="http://www.w3.org/2000/svg" width="1024" height="1024">
<path d="M0 0 C2.16717173 -0.00258786 4.33434299 -0.00560219 6.5015136 -0.0090034 C12.42813642 -0.01702761 18.35474709 -0.01886041 24.28137469 -0.01960087 C30.68534844 -0.02145952 37.089316 -0.02901103 43.49328613 -0.03573608 C58.21497626 -0.04999492 72.9366639 -0.0558425 87.65835973 -0.06042803 C94.94731392 -0.06276989 102.23626734 -0.06637325 109.52522092 -0.07012341 C134.51902999 -0.08295632 159.51283863 -0.09367413 184.50665092 -0.09712601 C186.07367826 -0.09734763 187.64070559 -0.09756942 189.20773292 -0.09779136 C190.77836367 -0.09801199 192.34899442 -0.09823248 193.91962516 -0.09845281 C197.07012487 -0.09889534 200.22062457 -0.09934246 203.37112427 -0.09979248 C204.54282263 -0.09995657 204.54282263 -0.09995657 205.73819167 -0.10012397 C231.02992466 -0.10374942 256.3216289 -0.11965143 281.61335089 -0.14298284 C308.40756865 -0.16765468 335.20177001 -0.18130231 361.99599946 -0.18249393 C364.94527126 -0.18266535 367.89454305 -0.18288077 370.84381485 -0.18312836 C371.56990976 -0.18318413 372.29600467 -0.18323989 373.04410246 -0.18329735 C384.66180031 -0.18444161 396.27946835 -0.19541022 407.89715618 -0.21001541 C419.60666135 -0.22447982 431.31612565 -0.22731229 443.02563737 -0.21957543 C449.35261865 -0.21569824 455.67950096 -0.21645304 462.00646973 -0.23063278 C544.55743448 -0.40473481 627.05685311 11.13390039 688.17434692 71.51544189 C694.92777487 78.30612807 701.04734017 85.23661579 706.48684692 93.14044189 C707.13097534 94.0666333 707.13097534 94.0666333 707.78811646 95.01153564 C743.05506219 146.20753304 754.65671252 208.43450828 754.62728882 269.65359497 C754.62987668 271.8207667 754.63289101 273.98793796 754.63629222 276.15510857 C754.64431643 282.08173139 754.64614923 288.00834206 754.64688969 293.93496966 C754.64874834 300.33894341 754.65629985 306.74291097 754.6630249 313.1468811 C754.67728374 327.86857123 754.68313131 342.59025887 754.68771685 357.3119547 C754.69005871 364.6009089 754.69366206 371.88986231 754.69741222 379.17881589 C754.71024514 404.17262496 754.72096295 429.1664336 754.72441483 454.1602459 C754.72463645 455.72727323 754.72485824 457.29430056 754.72508018 458.86132789 C754.72530081 460.43195864 754.72552129 462.00258939 754.72574162 463.57322013 C754.72618415 466.72371984 754.72663128 469.87421954 754.7270813 473.02471924 C754.72719069 473.80585148 754.72730008 474.58698373 754.72741279 475.39178664 C754.73103824 500.68351963 754.74694025 525.97522387 754.77027166 551.26694586 C754.7949435 578.06116362 754.80859113 604.85536498 754.80978274 631.64959443 C754.80995417 634.59886623 754.81016959 637.54813802 754.81041718 640.49740982 C754.81047294 641.22350473 754.81052871 641.94959965 754.81058617 642.69769743 C754.81173043 654.31539528 754.82269904 665.93306332 754.83730423 677.55075115 C754.85176864 689.26025632 754.85460111 700.96972062 754.84686425 712.67923234 C754.84298706 719.00621362 754.84374186 725.33309593 754.8579216 731.6600647 C755.03202362 814.21102945 743.49338843 896.71044808 683.11184692 957.82794189 C676.32116075 964.58136984 669.39067303 970.70093515 661.48684692 976.14044189 C660.56065552 976.78457031 660.56065552 976.78457031 659.61575317 977.44171143 C608.41975578 1012.70865716 546.19278054 1024.31030749 484.97369385 1024.28088379 C482.80652211 1024.28347165 480.63935086 1024.28648598 478.47218025 1024.28988719 C472.54555743 1024.2979114 466.61894676 1024.2997442 460.69231915 1024.30048466 C454.28834541 1024.30234331 447.88437785 1024.30989482 441.48040771 1024.31661987 C426.75871758 1024.33087871 412.03702995 1024.33672628 397.31533411 1024.34131182 C390.02637992 1024.34365368 382.73742651 1024.34725704 375.44847293 1024.3510072 C350.45466386 1024.36384011 325.46085521 1024.37455792 300.46704292 1024.3780098 C298.90001559 1024.37823142 297.33298826 1024.37845321 295.76596092 1024.37867515 C294.19533018 1024.37889578 292.62469943 1024.37911626 291.05406868 1024.3793366 C287.90356898 1024.37977912 284.75306928 1024.38022625 281.60256958 1024.38067627 C280.82143734 1024.38078566 280.04030509 1024.38089505 279.23550217 1024.38100776 C253.94376918 1024.38463321 228.65206495 1024.40053522 203.36034296 1024.42386663 C176.56612519 1024.44853847 149.77192384 1024.4621861 122.97769439 1024.46337771 C120.02842259 1024.46354914 117.07915079 1024.46376456 114.129879 1024.46401215 C113.04073663 1024.4640958 113.04073663 1024.4640958 111.92959138 1024.46418114 C100.31189353 1024.4653254 88.6942255 1024.47629401 77.07653767 1024.4908992 C65.3670325 1024.50536361 53.65756819 1024.50819608 41.94805647 1024.50045922 C35.6210752 1024.49658203 29.29419289 1024.49733683 22.96722412 1024.51151657 C-59.58374063 1024.68561859 -142.08315927 1013.1469834 -203.20065308 952.76544189 C-209.95408102 945.97475572 -216.07364633 939.044268 -221.51315308 931.14044189 C-222.15728149 930.21425049 -222.15728149 930.21425049 -222.81442261 929.26934814 C-258.08136834 878.07335075 -269.68301867 815.84637551 -269.65359497 754.62728882 C-269.65618283 752.46011709 -269.65919716 750.29294583 -269.66259837 748.12577522 C-269.67062258 742.1991524 -269.67245538 736.27254173 -269.67319584 730.34591413 C-269.67505449 723.94194038 -269.682606 717.53797282 -269.68933105 711.13400269 C-269.70358989 696.41231255 -269.70943747 681.69062492 -269.714023 666.96892908 C-269.71636486 659.67997489 -269.71996822 652.39102148 -269.72371838 645.1020679 C-269.73655129 620.10825883 -269.7472691 595.11445018 -269.75072098 570.12063789 C-269.7509426 568.55361056 -269.75116439 566.98658323 -269.75138633 565.4195559 C-269.75160696 563.84892515 -269.75182745 562.2782944 -269.75204778 560.70766366 C-269.75249031 557.55716395 -269.75293743 554.40666425 -269.75338745 551.25616455 C-269.75349684 550.47503231 -269.75360623 549.69390006 -269.75371894 548.88909714 C-269.75734439 523.59736416 -269.7732464 498.30565992 -269.79657781 473.01393793 C-269.82124965 446.21972016 -269.83489728 419.42551881 -269.8360889 392.63128936 C-269.83626032 389.68201756 -269.83647574 386.73274577 -269.83672333 383.78347397 C-269.8367791 383.05737906 -269.83683486 382.33128414 -269.83689232 381.58318636 C-269.83803659 369.9654885 -269.8490052 358.34782047 -269.86361038 346.73013264 C-269.87807479 335.02062747 -269.88090726 323.31116316 -269.87317041 311.60165145 C-269.86929321 305.27467017 -269.87004801 298.94778786 -269.88422775 292.62081909 C-270.05832978 210.06985434 -258.51969458 127.5704357 -198.13815308 66.45294189 C-191.3474669 59.69951395 -184.41697918 53.57994864 -176.51315308 48.14044189 C-175.58696167 47.49631348 -175.58696167 47.49631348 -174.64205933 46.83917236 C-123.44606193 11.57222663 -61.21908669 -0.0294237 0 0 Z " fill="#FEFEFE" transform="translate(269.5131530761719,-0.14044189453125)"/>
<path d="M0 0 C28.87920987 12.14249594 47.41688935 11.81473022 76.375 0 C77.20177246 -0.34047363 78.02854492 -0.68094727 78.88037109 -1.03173828 C95.68055494 -7.89565242 112.09039364 -11.3057982 130.22241211 -11.25317383 C132.48665827 -11.25001859 134.7495864 -11.27354891 137.01367188 -11.29882812 C169.35083635 -11.44288217 200.30938534 2.01076244 223.625 24.125 C227.70338564 28.36194059 230.96986747 33.1556104 234.1875 38.0625 C231.46731664 40.25603132 228.72953749 42.42132414 225.953125 44.54296875 C201.57446984 63.24430834 184.81579195 87.41238091 179.56469727 118.09472656 C178.88089171 123.47488212 178.84803585 128.83290157 178.875 134.25 C178.88063965 135.44036865 178.8862793 136.6307373 178.89208984 137.85717773 C179.30566877 167.94811554 190.68011339 193.36640895 212.1484375 214.33203125 C221.95583305 223.36549677 234.48456123 231.82818708 247.1875 236.0625 C239.53909519 270.08196721 220.63297325 303.19369905 200.1875 331.0625 C199.77580566 331.62437012 199.36411133 332.18624023 198.93994141 332.76513672 C182.65384258 354.80458214 165.28365778 374.44230666 137.921875 381.66015625 C117.71548317 384.63338248 101.91957237 379.2840892 83.89257812 370.97045898 C61.58990417 360.8495682 33.84863973 357.25351049 10.55859375 366.00317383 C8.08639491 366.98965744 5.63796517 368.02336338 3.1875 369.0625 C1.41986834 369.76909363 -0.34970273 370.47085318 -2.12109375 371.16796875 C-5.52918856 372.51418661 -8.92778751 373.88067696 -12.3203125 375.265625 C-28.71826722 381.90207112 -48.27395081 385.99599716 -65.6875 380.4375 C-67.42101624 379.70261202 -69.13214527 378.91193916 -70.8125 378.0625 C-71.72386719 377.63839844 -72.63523437 377.21429687 -73.57421875 376.77734375 C-90.55814716 368.2735358 -104.1860901 353.03078382 -115.38818359 337.97412109 C-116.36028708 336.66942958 -117.34014407 335.37048825 -118.32666016 334.07666016 C-150.95307661 291.26909476 -171.08326836 239.92967752 -179.8125 187.0625 C-179.97766113 186.07991211 -180.14282227 185.09732422 -180.31298828 184.08496094 C-188.36459171 134.54303702 -181.65787046 79.3285489 -152.18701172 37.65405273 C-148.78488952 33.02784626 -144.94261657 29.03996074 -140.8125 25.0625 C-140.02875 24.258125 -139.245 23.45375 -138.4375 22.625 C-100.26679152 -14.63688209 -47.70935217 -20.16349433 0 0 Z " fill="#FE1235" transform="translate(476.8125,372.9375)"/>
<path d="M0 0 C0.55557033 23.48827883 -3.48448658 45.58929436 -15.03271484 66.26123047 C-15.93235014 67.87839417 -16.79026053 69.51857664 -17.64453125 71.16015625 C-22.29966371 79.75686073 -28.43862666 86.82685927 -35 94 C-35.7528125 94.83660156 -36.505625 95.67320312 -37.28125 96.53515625 C-50.87763281 110.91789702 -70.24444853 122.31477941 -90 125 C-92.63589958 125.06656312 -95.24148596 125.09567411 -97.875 125.0625 C-98.56335938 125.05798828 -99.25171875 125.05347656 -99.9609375 125.04882812 C-101.64066335 125.03716336 -103.32034375 125.01923271 -105 125 C-105.83815099 95.41649369 -105.83815099 95.41649369 -101 83 C-100.6299585 82.0414209 -100.6299585 82.0414209 -100.25244141 81.06347656 C-89.90300845 54.72293081 -73.10326293 32.15512349 -49 17 C-48.23042969 16.47277344 -47.46085938 15.94554687 -46.66796875 15.40234375 C-33.59841995 6.81901485 -15.69436202 -0.30886813 0 0 Z " fill="#FE0A2D" transform="translate(616,235)"/>
<path d="M0 0 C0 0.99 0 1.98 0 3 C-2 5 -2 5 -4 7 C-4.474375 8.010625 -4.94875 9.02125 -5.4375 10.0625 C-7.19952237 13.37510206 -8.67663185 14.38322631 -12 16 C-10.57139081 11.50891248 -8.06922708 8.53830684 -4.875 5.1875 C-4.40707031 4.68541016 -3.93914062 4.18332031 -3.45703125 3.66601562 C-2.31098175 2.43810545 -1.15634689 1.21821785 0 0 Z " fill="#FD0B1B" transform="translate(335,399)"/>
<path d="M0 0 C0.33 0.66 0.66 1.32 1 2 C-0.21484375 4.3828125 -0.21484375 4.3828125 -1.9375 7.125 C-2.50339844 8.03507812 -3.06929687 8.94515625 -3.65234375 9.8828125 C-4.09707031 10.58148438 -4.54179688 11.28015625 -5 12 C-6.34780093 9.30439815 -5.67336458 8.257383 -4.75 5.4375 C-4.37101563 4.22900391 -4.37101563 4.22900391 -3.984375 2.99609375 C-3.65953125 2.33738281 -3.3346875 1.67867188 -3 1 C-2.01 0.67 -1.02 0.34 0 0 Z " fill="#FE0D20" transform="translate(671,448)"/>
<path d="M0 0 C2.31 0.66 4.62 1.32 7 2 C5.35 3.32 3.7 4.64 2 6 C1.34 5.67 0.68 5.34 0 5 C0 3.33333333 0 1.66666667 0 0 Z " fill="#FD0A24" transform="translate(704,409)"/>
<path d="M0 0 C-1.09758507 0.84198307 -2.20335317 1.67330671 -3.3125 2.5 C-3.92738281 2.9640625 -4.54226563 3.428125 -5.17578125 3.90625 C-7 5 -7 5 -10 5 C-10 4.34 -10 3.68 -10 3 C-3.375 -1.125 -3.375 -1.125 0 0 Z " fill="#FE0517" transform="translate(577,249)"/>
</svg>
